<?xml version="1.0" encoding="UTF-8"?>
<svg id="Layer_1" data-name="Layer 1" xmlns="http://www.w3.org/2000/svg" viewBox="0 0 348 328">
  <defs>
    <style>
      .cls-1 {
        fill: #6c1f41;
      }
    </style>
  </defs>
  <path class="cls-1" d="M340.8,161.31L182.68,3.59c-1.14-1.14-2.49-2.04-3.98-2.66C177.21.32,175.62,0,174.01,0s-3.21.32-4.7.93c-1.49.62-2.84,1.52-3.98,2.66L7.22,161.31c-4.61,4.6-7.22,10.84-7.22,17.36,0,13.53,11.02,24.52,24.57,24.52h16.66v112.54c0,6.78,5.49,12.26,12.28,12.26h95.93v-85.83h42.99v85.83h102.07c6.8,0,12.28-5.48,12.28-12.26v-112.54h16.66c6.53,0,12.78-2.57,17.39-7.2,9.56-9.58,9.56-25.1-.04-34.68Z"/>
</svg>